<?xml version="1.0" standalone="no"?>
<!DOCTYPE svg PUBLIC "-//W3C//DTD SVG 20010904//EN"
 "http://www.w3.org/TR/2001/REC-SVG-20010904/DTD/svg10.dtd">
<svg version="1.0" xmlns="http://www.w3.org/2000/svg"
 width="200.000000pt" height="200.000000pt" viewBox="0 0 200.000000 200.000000"
 preserveAspectRatio="xMidYMid meet">
<metadata>
Created by potrace 1.11, written by Peter Selinger 2001-2013
</metadata>
<g transform="translate(0.000000,200.000000) scale(0.100000,-0.100000)"
fill="#000000" stroke="none">
<path d="M773 1386 c-76 -13 -93 -20 -77 -36 5 -5 48 -3 109 7 139 21 412 13
553 -16 288 -60 500 -187 582 -351 30 -58 37 -159 17 -217 -15 -43 -13 -53 8
-53 18 0 35 70 35 146 0 236 -279 444 -688 515 -132 22 -418 25 -539 5z"/>
<path d="M584 1316 c-10 -26 4 -48 28 -44 17 2 23 10 23 28 0 18 -6 26 -23 28
-13 2 -25 -3 -28 -12z"/>
<path d="M0 1307 c0 -8 13 -17 30 -20 l30 -6 0 -156 0 -156 -30 -10 c-59 -21
-34 -34 62 -33 96 1 130 17 64 30 l-36 6 0 67 0 67 53 0 c62 0 98 19 128 67
25 41 19 91 -16 126 -24 25 -31 26 -155 29 -109 3 -130 1 -130 -11z m230 -47
c12 -12 20 -33 20 -55 0 -50 -28 -75 -85 -75 l-45 0 0 75 0 75 45 0 c32 0 51
-6 65 -20z"/>
<path d="M383 1182 c-45 -17 -58 -42 -23 -42 18 0 20 -7 20 -88 0 -86 -1 -89
-26 -101 -39 -17 -22 -25 56 -26 48 0 70 4 70 12 0 6 -9 14 -19 18 -39 12 -36
152 4 185 13 10 19 9 35 -5 19 -17 20 -17 26 1 12 38 12 42 1 53 -17 17 -33
13 -65 -14 l-29 -24 5 24 c5 28 3 29 -55 7z"/>
<path d="M578 1183 c-40 -16 -55 -50 -18 -38 19 6 20 2 20 -89 0 -86 -2 -95
-20 -101 -11 -3 -20 -12 -20 -19 0 -9 20 -12 70 -12 47 1 70 5 70 13 0 6 -9
15 -20 18 -19 6 -20 15 -20 126 0 131 2 128 -62 102z"/>
<path d="M733 1180 c-48 -21 -56 -40 -18 -40 25 0 25 -1 25 -79 0 -88 -5 -111
-26 -111 -8 0 -14 -6 -14 -12 0 -9 19 -13 65 -12 75 1 89 8 51 25 -25 12 -26
16 -26 83 0 85 16 116 60 116 39 0 50 -23 50 -105 0 -58 -3 -69 -26 -90 -15
-14 -24 -25 -20 -26 31 -4 137 -1 142 4 4 4 -5 11 -20 16 -25 10 -26 14 -26
84 0 86 16 117 60 117 39 0 50 -23 50 -105 0 -58 -3 -69 -25 -90 -15 -13 -22
-25 -18 -27 13 -6 132 -2 139 5 4 4 -5 11 -20 16 -26 10 -26 12 -26 109 0 90
-2 100 -23 120 -31 29 -78 28 -113 -2 l-28 -23 -19 23 c-24 30 -74 32 -111 3
l-26 -20 0 20 c0 25 -3 25 -57 1z"/>
<path d="M1234 1181 c-108 -66 -71 -261 49 -261 37 0 47 5 116 56 1 1 0 7 -4
13 -4 8 -15 6 -35 -4 -65 -34 -116 -10 -127 59 l-6 36 75 0 c84 0 105 12 94
55 -16 63 -96 86 -162 46z m96 -32 c14 -26 15 -25 -42 -32 -38 -5 -48 -4 -48
7 0 43 71 62 90 25z"/>
<path d="M0 830 c0 -5 9 -10 20 -10 19 0 20 -7 20 -94 0 -88 -1 -94 -22 -102
-17 -6 -2 -9 51 -11 83 -4 116 10 127 54 6 21 2 31 -17 47 -23 20 -23 22 -7
39 23 22 23 42 -2 67 -16 16 -33 20 -95 20 -43 0 -75 -4 -75 -10z m144 -32
c16 -26 -4 -52 -43 -56 -29 -3 -31 -1 -31 31 0 18 3 37 7 41 13 12 56 2 67
-16z m1 -92 c16 -12 18 -19 10 -43 -9 -23 -17 -29 -48 -31 l-37 -3 0 45 c0 44
1 46 28 46 16 0 37 -6 47 -14z"/>
<path d="M210 830 c0 -5 7 -10 15 -10 12 0 15 -16 15 -81 0 -44 4 -89 10 -99
13 -24 72 -43 110 -35 52 11 70 47 70 136 0 62 3 79 14 79 8 0 18 5 21 10 4 6
-13 10 -44 10 -28 0 -51 -4 -51 -10 0 -5 6 -10 14 -10 35 0 31 -161 -4 -180
-28 -15 -66 -12 -84 6 -23 22 -23 174 -1 174 8 0 15 5 15 10 0 6 -22 10 -50
10 -27 0 -50 -4 -50 -10z"/>
<path d="M519 812 c-26 -23 -32 -38 -36 -78 -5 -62 11 -94 60 -117 41 -20 100
-17 134 8 27 20 13 25 -33 13 -76 -21 -124 18 -124 98 0 47 37 84 84 84 36 0
66 -21 66 -46 0 -8 5 -14 10 -14 6 0 10 15 10 34 0 40 -11 46 -86 46 -45 0
-59 -5 -85 -28z"/>
<path d="M710 830 c0 -5 7 -10 15 -10 24 0 22 -178 -2 -196 -16 -12 -11 -13
37 -13 48 0 53 1 38 13 -12 8 -18 27 -18 50 l0 36 55 0 55 0 0 -40 c0 -28 -4
-40 -14 -40 -8 0 -18 -4 -21 -10 -4 -6 16 -10 52 -10 51 1 56 2 40 14 -12 10
-19 33 -24 79 -7 75 1 117 22 117 8 0 15 5 15 10 0 6 -25 10 -55 10 -30 0 -55
-4 -55 -10 0 -5 9 -10 20 -10 17 0 20 -7 20 -40 l0 -40 -55 0 -55 0 0 40 c0
29 4 40 15 40 8 0 15 5 15 10 0 6 -22 10 -50 10 -27 0 -50 -4 -50 -10z"/>
<path d="M970 830 c0 -5 7 -10 15 -10 11 0 15 -12 16 -47 2 -101 -3 -137 -19
-150 -14 -10 -7 -12 43 -12 50 0 56 2 38 11 -18 9 -23 20 -23 50 l0 38 55 0
55 0 0 -38 c0 -30 -5 -41 -22 -50 -19 -9 -13 -11 37 -11 52 0 58 1 43 13 -25
18 -27 196 -3 196 8 0 15 5 15 10 0 6 -25 10 -56 10 -34 0 -53 -4 -49 -10 3
-5 13 -10 21 -10 10 0 14 -12 14 -40 l0 -40 -55 0 -55 0 0 40 c0 28 4 40 14
40 8 0 18 5 21 10 4 6 -15 10 -49 10 -31 0 -56 -4 -56 -10z"/>
<path d="M1278 811 c-30 -27 -33 -34 -33 -89 0 -72 25 -107 85 -117 82 -14
140 40 140 130 0 38 -5 52 -29 76 -25 24 -37 29 -80 29 -42 0 -56 -5 -83 -29z
m131 -17 c15 -19 21 -41 21 -74 0 -55 -20 -86 -62 -96 -22 -5 -34 0 -59 25
-29 29 -31 36 -27 82 6 61 30 89 74 89 23 0 38 -7 53 -26z"/>
<path d="M1490 831 c0 -5 9 -11 20 -14 18 -5 20 -14 20 -96 0 -73 -3 -91 -14
-91 -8 0 -18 -4 -21 -10 -4 -6 28 -10 88 -10 94 0 95 0 101 26 9 35 -1 43 -20
16 -12 -17 -25 -22 -60 -22 l-44 0 0 91 c0 82 2 91 20 96 39 10 19 23 -35 23
-30 0 -55 -4 -55 -9z"/>
<path d="M1730 804 c0 -21 4 -33 10 -29 6 3 10 12 10 20 0 7 8 16 19 20 21 6
81 3 81 -5 0 -3 -32 -47 -70 -98 -39 -51 -70 -95 -70 -98 0 -2 42 -4 94 -4
l94 0 5 28 c7 36 -2 42 -20 15 -13 -19 -25 -23 -69 -23 l-54 0 68 93 c38 50
72 98 76 105 5 9 -14 12 -83 12 l-91 0 0 -36z"/>
</g>
</svg>
